<?xml version="1.0" encoding="utf-8"?>
<!-- Generator: Adobe Illustrator 27.9.1, SVG Export Plug-In . SVG Version: 6.00 Build 0)  -->
<svg version="1.1" id="Layer_1" xmlns="http://www.w3.org/2000/svg" xmlns:xlink="http://www.w3.org/1999/xlink" x="0px" y="0px"
	 viewBox="0 0 24 32" style="enable-background:new 0 0 24 32;" xml:space="preserve">
<style type="text/css">
	.st0{fill:none;stroke:#000000;stroke-width:2;stroke-linecap:round;stroke-linejoin:round;}
	.marker-icon-body{fill:#cdd6f4;}
	.test{fill:red;}
</style>
<path class="st0 marker-icon-body" d="M7,2.6h10c1.1,0,2,0.9,2,2v16c0,1.1-0.9,2-2,2H7c-1.1,0-2-0.9-2-2v-16C5,3.5,5.9,2.6,7,2.6z"/>
<path class="st0" d="M9.3,5.9h5.4c0.6,0,1.1,0.5,1.1,1v8.2c0,0.6-0.5,1-1.1,1H9.3c-0.6,0-1.1-0.5-1.1-1V6.9C8.2,6.3,8.7,5.9,9.3,5.9
	z"/>
<path class="st0" d="M9.1,19.3h5.8"/>
<path class="st0" d="M19.3,26.9c-2.6-0.3-3.1,2.1-4.9,2.1C11.8,29,12,26,12,25c0-1.4,0-1.8,0-2.2"/>
<line class="st0" x1="8.6" y1="10.7" x2="14.1" y2="6.3"/>
<line class="st0" x1="9.8" y1="15.8" x2="15.4" y2="11.3"/>
</svg>
