<?xml version="1.0" encoding="UTF-8"?>
<svg id="Layer_1" data-name="Layer 1" xmlns="http://www.w3.org/2000/svg" viewBox="0 0 645 393.32">
  <defs>
    <style>
      .cls-1 {
        fill: #cba6f7;
      }
    </style>
  </defs>
  
  <g>
    <path class="cls-1" d="m126.65,363.24c-.99,0-1.97-.01-2.96-.03-32.71-.75-63.54-14.09-86.83-37.58C13.58,302.15.49,271.19.01,238.48c-.5-34.2,12.44-66.44,36.43-90.79,23.99-24.35,56.03-37.75,90.21-37.75,42.99,0,82.67,21.52,106.14,57.57l67.99,89.55c.16.22.41.36.68.39.04,0,.08,0,.12,0,.23,0,.45-.08.63-.23l70.62-57.94,30.53,36.99-108.79,87.58-43.25-57.01-55.6-73.3c-14.93-23.97-40.77-38.33-69.07-38.33-1,0-2,.02-3.02.05-42.34,1.53-76.73,35.9-78.3,78.23-.83,22.34,7.24,43.48,22.72,59.54,15.48,16.07,36.29,24.92,58.6,24.92,36.09,0,67.89-23.87,78.05-58.29l31.15,41.08c-22.68,38.56-64.46,62.49-109.2,62.49Z"/>
    <path class="cls-1" d="m518.11,363.24c-49.87,0-95.13-29.31-115.56-74.76l39.54-22.81c11.99,31.32,42.39,52.29,76.02,52.29,2.2,0,4.44-.09,6.64-.26,18.56-1.47,36.28-9.53,49.89-22.68,13.62-13.17,22.26-30.6,24.31-49.09,2.62-23.52-4.55-46.09-20.19-63.57-15.43-17.24-37.54-27.13-60.66-27.13-15.2,0-30.03,4.22-42.89,12.22-12.69,7.88-22.92,19.03-29.67,32.3l-30.83-37.57L303.8,27.05l66.16-.15c19.79-.04,38.88-7.26,53.74-20.33l7.48-6.57,30.69,36.3-8.56,9.01c-14.98,15.77-36.04,24.81-57.78,24.81-.39,0-.74.22-.9.57s-.11.76.13,1.06l49.94,60.5c.2.24.48.36.77.36.2,0,.4-.06.57-.18,21.22-14.72,46.14-22.5,72.07-22.5,35.31,0,68.09,14.17,92.29,39.91,24.18,25.72,36.3,59.37,34.12,94.77-3.99,64.68-57.91,116.76-122.77,118.58-1.21.03-2.42.05-3.63.05Z"/>
  </g>
<script xmlns="" id="bw-fido2-page-script"/></svg>